name Walk7.mot
datacolumns 19
datarows 30
range 1.16100000 1.19000000
endheader

                time	   L_ground_force_vx	   L_ground_force_vy	   L_ground_force_vz	   L_ground_force_px	   L_ground_force_py	   L_ground_force_pz	   R_ground_force_vx	   R_ground_force_vy	   R_ground_force_vz	   R_ground_force_px	   R_ground_force_py	   R_ground_force_pz	   L_ground_torque_x	   L_ground_torque_y	   L_ground_torque_z	   R_ground_torque_x	   R_ground_torque_y	   R_ground_torque_z	
          1.16100000	         44.84786582	        537.20181717	         26.70677989	         -0.22166170	          0.00000000	         -0.03629132	         -0.03517462	          0.63327208	          0.05671707	          0.00046686	          0.00000000	          0.00009820	          0.00000000	          0.08778326	          0.00000000	          0.00000000	          0.00210133	          0.00000000	
          1.16200000	         45.61536828	        539.62867681	         26.87046627	         -0.22157254	          0.00000000	         -0.03627355	         -0.03823964	          0.63738901	          0.05616987	          0.00046286	          0.00000000	          0.00009720	          0.00000000	          0.08184296	          0.00000000	          0.00000000	          0.00272056	          0.00000000	
          1.16300000	         46.38494347	        542.04440351	         27.03278010	         -0.22148227	          0.00000000	         -0.03625559	         -0.04143155	          0.63925614	          0.05533984	          0.00045658	          0.00000000	          0.00009572	          0.00000000	          0.07599141	          0.00000000	          0.00000000	          0.00338608	          0.00000000	
          1.16400000	         47.15661216	        544.44823813	         27.19361985	         -0.22139087	          0.00000000	         -0.03623741	         -0.04474896	          0.63865671	          0.05420414	          0.00044783	          0.00000000	          0.00009369	          0.00000000	          0.07023621	          0.00000000	          0.00000000	          0.00409947	          0.00000000	
          1.16500000	         47.93040017	        546.83942310	         27.35287513	         -0.22129832	          0.00000000	         -0.03621898	         -0.04818984	          0.63536399	          0.05273904	          0.00043642	          0.00000000	          0.00009110	          0.00000000	          0.06458514	          0.00000000	          0.00000000	          0.00486222	          0.00000000	
          1.16600000	         48.70633629	        549.21720147	         27.51042704	         -0.22120461	          0.00000000	         -0.03620026	         -0.05175143	          0.62914129	          0.05091999	          0.00042215	          0.00000000	          0.00008788	          0.00000000	          0.05904651	          0.00000000	          0.00000000	          0.00567577	          0.00000000	
          1.16700000	         49.48445062	        551.58081529	         27.66614978	         -0.22110972	          0.00000000	         -0.03618122	         -0.05543026	          0.61974205	          0.04872162	          0.00040480	          0.00000000	          0.00008400	          0.00000000	          0.05362941	          0.00000000	          0.00000000	          0.00654148	          0.00000000	
          1.16800000	         50.26477394	        553.92950338	         27.81991314	         -0.22101366	          0.00000000	         -0.03616182	         -0.05922202	          0.60690991	          0.04611774	          0.00038417	          0.00000000	          0.00007942	          0.00000000	          0.04834353	          0.00000000	          0.00000000	          0.00746062	          0.00000000	
          1.16900000	         51.04733809	        556.26249894	         27.97158484	         -0.22091642	          0.00000000	         -0.03614203	         -0.06312155	          0.59037885	          0.04308143	          0.00036004	          0.00000000	          0.00007408	          0.00000000	          0.04319893	          0.00000000	          0.00000000	          0.00843435	          0.00000000	
          1.17000000	         51.83217693	        558.57902742	         28.12103215	         -0.22081798	          0.00000000	         -0.03612181	         -0.06712276	          0.56987344	          0.03958505	          0.00033218	          0.00000000	          0.00006794	          0.00000000	          0.03820570	          0.00000000	          0.00000000	          0.00946374	          0.00000000	
          1.17100000	         52.61932721	        560.87830487	         28.26812212	         -0.22071835	          0.00000000	         -0.03610111	         -0.07121857	          0.54510904	          0.03560029	          0.00030035	          0.00000000	          0.00006095	          0.00000000	          0.03337383	          0.00000000	          0.00000000	          0.01054970	          0.00000000	
          1.17200000	         53.40882837	        563.15953716	         28.41272085	         -0.22061752	          0.00000000	         -0.03607989	         -0.07540085	          0.51579215	          0.03109822	          0.00026433	          0.00000000	          0.00005306	          0.00000000	          0.02871329	          0.00000000	          0.00000000	          0.01169300	          0.00000000	
          1.17300000	         54.20072150	        565.42191978	         28.55469225	         -0.22051546	          0.00000000	         -0.03605810	         -0.07966038	          0.48162081	          0.02604936	          0.00022387	          0.00000000	          0.00004421	          0.00000000	          0.02423426	          0.00000000	          0.00000000	          0.01289425	          0.00000000	
          1.17400000	         54.99504736	        567.66463809	         28.69389701	         -0.22041219	          0.00000000	         -0.03603568	         -0.08398673	          0.44228505	          0.02042376	          0.00017873	          0.00000000	          0.00003436	          0.00000000	          0.01994739	          0.00000000	          0.00000000	          0.01415388	          0.00000000	
          1.17500000	         55.79184434	        569.88686700	         28.83019206	         -0.22030767	          0.00000000	         -0.03601259	         -0.08836826	          0.39746741	          0.01419104	          0.00012865	          0.00000000	          0.00002346	          0.00000000	          0.01586393	          0.00000000	          0.00000000	          0.01547210	          0.00000000	
          1.17600000	         56.59114683	        572.08776987	         28.96343075	         -0.22020190	          0.00000000	         -0.03598879	         -0.09279198	          0.34684360	          0.00732055	          0.00007339	          0.00000000	          0.00001144	          0.00000000	          0.01199571	          0.00000000	          0.00000000	          0.01684892	          0.00000000	
          1.17700000	         57.39298445	        574.26649650	         29.09346367	         -0.22009488	          0.00000000	         -0.03596424	         -0.09724355	          0.29008312	         -0.00021862	          0.00001269	          0.00000000	         -0.00000174	          0.00000000	          0.00835490	          0.00000000	          0.00000000	          0.01828410	          0.00000000	
          1.17800000	         58.19738244	        576.42218059	         29.22013972	         -0.21998660	          0.00000000	         -0.03593890	         -0.10170718	          0.22685016	         -0.00845747	         -0.00005370	          0.00000000	         -0.00001614	          0.00000000	          0.00495340	          0.00000000	          0.00000000	          0.01977713	          0.00000000	
          1.17900000	         59.00436296	        578.55393741	         29.34330692	         -0.21987705	          0.00000000	         -0.03591273	         -0.10616555	          0.15680441	         -0.01742698	         -0.00012604	          0.00000000	         -0.00003181	          0.00000000	          0.00180216	          0.00000000	          0.00000000	          0.02132722	          0.00000000	
          1.18000000	         59.81394662	        580.66086239	         29.46281236	         -0.21976624	          0.00000000	         -0.03588570	         -0.11059976	          0.07960206	         -0.02715802	         -0.00020459	          0.00000000	         -0.00004881	          0.00000000	         -0.00108967	          0.00000000	          0.00000000	          0.02293328	          0.00000000	
          1.18100000	         60.62615362	        582.74203136	         29.57850114	         -0.21965416	          0.00000000	         -0.03585778	         -0.11498926	         -0.00510306	         -0.03768114	         -0.00028958	          0.00000000	         -0.00006718	          0.00000000	         -0.00371510	          0.00000000	          0.00000000	          0.02459386	          0.00000000	
          1.18200000	         61.44100385	        584.79650252	         29.69021476	         -0.21954079	          0.00000000	         -0.03582894	         -0.11931175	         -0.09765834	         -0.04902652	         -0.00038128	          0.00000000	         -0.00008698	          0.00000000	         -0.00606936	          0.00000000	          0.00000000	          0.02630719	          0.00000000	
          1.18300000	         62.25851589	        586.82331957	         29.79778926	         -0.21942614	          0.00000000	         -0.03579914	         -0.12354316	         -0.19841101	         -0.06122368	         -0.00047993	          0.00000000	         -0.00010827	          0.00000000	         -0.00814941	          0.00000000	          0.00000000	          0.02807108	          0.00000000	
          1.18400000	         63.07870532	        588.82151482	         29.90105386	         -0.21931017	          0.00000000	         -0.03576836	         -0.12765756	         -0.30770669	         -0.07430142	         -0.00058575	          0.00000000	         -0.00013108	          0.00000000	         -0.00995323	          0.00000000	          0.00000000	          0.02988295	          0.00000000	
          1.18500000	         63.90158268	        590.79011144	         29.99983007	         -0.21919288	          0.00000000	         -0.03573656	         -0.13162707	         -0.42588789	         -0.08828755	         -0.00069900	          0.00000000	         -0.00015547	          0.00000000	         -0.01147915	          0.00000000	          0.00000000	          0.03173977	          0.00000000	
          1.18600000	         64.72715125	        592.72812448	         30.09393180	         -0.21907423	          0.00000000	         -0.03570371	         -0.13542184	         -0.55329219	         -0.10320873	         -0.00081988	          0.00000000	         -0.00018149	          0.00000000	         -0.01272545	          0.00000000	          0.00000000	          0.03363805	          0.00000000	
          1.18700000	         65.55540500	        594.63456106	         30.18316627	         -0.21895420	          0.00000000	         -0.03566979	         -0.13900996	         -0.69025050	         -0.11909021	         -0.00094861	          0.00000000	         -0.00020917	          0.00000000	         -0.01369011	          0.00000000	          0.00000000	          0.03557381	          0.00000000	
          1.18800000	         66.38632704	        596.50842029	         30.26733579	         -0.21883276	          0.00000000	         -0.03563478	         -0.14235741	         -0.83708500	         -0.13595564	         -0.00108538	          0.00000000	         -0.00023857	          0.00000000	         -0.01437102	          0.00000000	          0.00000000	          0.03754254	          0.00000000	
          1.18900000	         67.21988890	        598.34869351	         30.34623988	         -0.21870988	          0.00000000	         -0.03559864	         -0.14542799	         -0.99410701	         -0.15382682	         -0.00123038	          0.00000000	         -0.00026971	          0.00000000	         -0.01476647	          0.00000000	          0.00000000	          0.03953916	          0.00000000	
          1.19000000	         68.05605094	        600.15436520	         30.41967667	         -0.21858555	          0.00000000	         -0.03556135	         -0.14818331	         -1.16161472	         -0.17272338	         -0.00138377	          0.00000000	         -0.00030263	          0.00000000	         -0.01487566	          0.00000000	          0.00000000	          0.04155802	          0.00000000	
